<svg width="188" height="189" viewBox="0 0 188 189" fill="none" xmlns="http://www.w3.org/2000/svg">
<path d="M51.2498 27.8823L43.9716 14.7353L45.9486 13.6386L49.424 19.916L49.5877 19.8277L51.6276 10.4874L54.1209 9.10083L52.0935 17.9622L61.4117 22.2479L59.0192 23.5714L51.5269 20.0546L50.9602 22.7017L53.2268 26.7983L51.2498 27.8949V27.8823Z" fill="#C4C4C4"/>
<path d="M69.4832 3.50415L74.3185 17.7352L72.3416 18.4033L61.5628 10.4243L61.4368 10.4747L64.9878 20.9117L62.8471 21.6428L58.0118 7.41171L60.0013 6.73104L70.7928 14.7226L70.9187 14.6722L67.3677 4.22264L69.4958 3.50415H69.4832Z" fill="#C4C4C4"/>
<path d="M88.7617 7.87814C88.9757 9.46637 88.875 10.8781 88.4595 12.1008C88.0439 13.3235 87.364 14.3067 86.4321 15.063C85.5003 15.8193 84.4048 16.2857 83.1204 16.4622C81.836 16.6386 80.6398 16.4874 79.5443 16.021C78.4488 15.542 77.5295 14.7857 76.7992 13.7143C76.0563 12.6554 75.5778 11.3319 75.3637 9.74368C75.1496 8.15545 75.2504 6.74368 75.6659 5.52099C76.094 4.29831 76.7614 3.31511 77.6932 2.55881C78.625 1.80251 79.7206 1.33612 81.0175 1.15965C82.3019 0.983179 83.4856 1.13444 84.5811 1.60083C85.6766 2.06721 86.5958 2.83612 87.3262 3.90755C88.0565 4.97898 88.5476 6.2899 88.7617 7.87814ZM86.5455 8.18066C86.3818 6.97057 86.0418 5.97478 85.5381 5.19326C85.0344 4.41175 84.4174 3.85713 83.6745 3.5294C82.9441 3.18906 82.1508 3.08822 81.2946 3.20167C80.4383 3.31511 79.6954 3.64284 79.0909 4.15965C78.4865 4.67646 78.0332 5.38234 77.7562 6.2773C77.4792 7.15965 77.4288 8.20587 77.5925 9.42856C77.7562 10.6512 78.0962 11.6344 78.5999 12.416C79.1035 13.1975 79.7206 13.7521 80.4509 14.0924C81.1812 14.4328 81.9745 14.5336 82.8308 14.4202C83.6871 14.3067 84.4174 13.979 85.0344 13.4622C85.6514 12.9454 86.0922 12.2395 86.3692 11.3445C86.6462 10.4622 86.6966 9.41595 86.5329 8.19326L86.5455 8.18066Z" fill="#C4C4C4"/>
<path d="M94.6548 15.3151L91.6578 0L94.0377 0.189076L96.0651 12.0252H96.2036L100.132 0.655462L102.487 0.831933L104.628 12.6807H104.766L108.569 1.29832L110.949 1.48739L105.635 16.1597L103.356 15.9832L101.064 4.51261H100.951L96.9339 15.4916L94.6548 15.3151Z" fill="#C4C4C4"/>
<path d="M121.715 4.29834L124.271 5.31935L124.385 17.9496L124.548 18.0126L133.313 8.92439L135.869 9.9454L130.303 23.9118L128.301 23.1177L132.33 13.0084L132.204 12.958L124.07 21.4034L122.408 20.7353L122.307 9.00002L122.181 8.9496L118.152 19.0588L116.15 18.2647L121.715 4.29834Z" fill="#C4C4C4"/>
<path d="M147.554 26.2436C146.66 27.5797 145.653 28.5629 144.532 29.1932C143.399 29.8234 142.24 30.1134 141.057 30.0629C139.86 30.0125 138.727 29.6218 137.657 28.9033C136.574 28.1848 135.781 27.2772 135.277 26.1932C134.773 25.1092 134.597 23.9243 134.748 22.6386C134.899 21.3528 135.415 20.0419 136.309 18.7058C137.203 17.3697 138.211 16.3865 139.332 15.7562C140.452 15.126 141.623 14.836 142.807 14.8865C144.003 14.9369 145.136 15.3276 146.219 16.0461C147.302 16.7646 148.083 17.6722 148.587 18.7436C149.09 19.815 149.267 21.0125 149.116 22.2982C148.964 23.5839 148.448 24.8949 147.554 26.231V26.2436ZM145.691 24.9957C146.37 23.9747 146.773 23.0167 146.912 22.0965C147.05 21.1764 146.95 20.357 146.622 19.6134C146.295 18.8697 145.779 18.2646 145.061 17.7856C144.343 17.3066 143.575 17.0545 142.769 17.0419C141.963 17.0293 141.17 17.2562 140.377 17.7352C139.583 18.2142 138.853 18.9579 138.173 19.9789C137.493 20.9999 137.09 21.9579 136.952 22.8781C136.813 23.7982 136.901 24.6176 137.229 25.3613C137.556 26.1049 138.072 26.71 138.803 27.189C139.52 27.668 140.276 27.9201 141.082 27.9327C141.888 27.9579 142.694 27.7184 143.487 27.2394C144.28 26.7604 145.011 26.0167 145.691 24.9957Z" fill="#C4C4C4"/>
<path d="M145.011 34.0085L155.412 23.1555L159.277 26.8614C160.121 27.6681 160.675 28.4874 160.952 29.3068C161.229 30.1261 161.267 30.9328 161.053 31.7017C160.839 32.4706 160.411 33.2017 159.769 33.8698C159.126 34.5379 158.434 34.979 157.678 35.2185C156.923 35.458 156.129 35.4454 155.311 35.1933C154.492 34.9412 153.661 34.4118 152.818 33.6051L149.896 30.7942L151.244 29.3824L154.027 32.0547C154.555 32.5589 155.059 32.8992 155.538 33.0757C156.016 33.2395 156.469 33.2522 156.91 33.1135C157.338 32.9748 157.754 32.6975 158.144 32.2942C158.535 31.8782 158.799 31.4496 158.925 31.0085C159.051 30.5547 159.026 30.0883 158.849 29.6093C158.673 29.1303 158.308 28.6261 157.766 28.1093L155.714 26.1429L146.66 35.5841L145.023 34.0085H145.011ZM155.059 34.248L153.044 41.7101L151.181 39.9202L153.246 32.5085L155.059 34.248Z" fill="#C4C4C4"/>
<path d="M154.089 43.0588L166.039 33.958L171.744 41.458L170.195 42.6429L165.863 36.9454L162.224 39.7185L166.253 45.0252L164.705 46.1975L160.675 40.8908L157.011 43.6765L161.393 49.437L159.844 50.6219L154.089 43.0462V43.0588Z" fill="#C4C4C4"/>
<path d="M164.314 58.3236L163.332 56.1303L179.248 54.9329L180.319 57.3278L168.822 68.4076L167.84 66.2144L177.322 57.3152L177.271 57.2144L164.314 58.3488V58.3236ZM169.855 56.2816L173.041 63.4161L171.303 64.1976L168.117 57.0631L169.855 56.2816Z" fill="#C4C4C4"/>
<path d="M169.213 69.9201L183.769 66.2017L185.129 71.5336C185.393 72.5672 185.444 73.4622 185.28 74.2311C185.116 75 184.789 75.6176 184.298 76.1092C183.807 76.6008 183.202 76.9285 182.485 77.105C181.88 77.2563 181.339 77.2815 180.873 77.168C180.407 77.0546 179.991 76.8403 179.651 76.5252C179.311 76.2227 179.022 75.8571 178.795 75.4412L178.657 75.479C178.757 75.9706 178.72 76.4748 178.556 77.0168C178.392 77.5462 178.077 78.0378 177.624 78.479C177.171 78.9201 176.579 79.2353 175.823 79.4243C175.081 79.6134 174.363 79.6134 173.695 79.4243C173.028 79.2353 172.411 78.8067 171.882 78.1765C171.353 77.5336 170.95 76.6512 170.661 75.5294L169.238 69.9454L169.213 69.9201ZM171.655 71.6344L172.461 74.8109C172.726 75.8571 173.129 76.563 173.645 76.9159C174.174 77.2689 174.741 77.3697 175.345 77.2059C175.811 77.0924 176.201 76.8655 176.516 76.5378C176.831 76.2101 177.057 75.7941 177.183 75.3151C177.297 74.8235 177.284 74.2941 177.133 73.7017L176.302 70.4496L171.643 71.647L171.655 71.6344ZM178.027 70.0084L178.783 72.958C178.909 73.4496 179.123 73.8655 179.412 74.2185C179.702 74.5714 180.054 74.8109 180.457 74.9622C180.86 75.1134 181.301 75.126 181.767 75C182.371 74.8487 182.825 74.5084 183.114 73.979C183.416 73.4496 183.454 72.7563 183.228 71.8865L182.459 68.8865L178.04 70.021L178.027 70.0084Z" fill="#C4C4C4"/>
<path d="M180.697 94.9539C179.097 95.0673 177.7 94.8782 176.516 94.374C175.332 93.8698 174.388 93.1387 173.695 92.1555C173.003 91.1849 172.612 90.0505 172.524 88.7522C172.436 87.4539 172.65 86.269 173.204 85.2102C173.758 84.1513 174.577 83.2816 175.685 82.6135C176.793 81.9454 178.14 81.5547 179.74 81.4412C181.339 81.3278 182.736 81.5169 183.92 82.0211C185.116 82.5253 186.048 83.2564 186.741 84.2396C187.433 85.2102 187.824 86.3446 187.912 87.6429C188 88.9412 187.773 90.1135 187.232 91.1723C186.69 92.2312 185.859 93.1009 184.764 93.769C183.656 94.437 182.308 94.8278 180.709 94.9412L180.697 94.9539ZM180.533 92.7102C181.754 92.6219 182.762 92.3572 183.58 91.9034C184.386 91.4497 184.978 90.8698 185.368 90.1513C185.759 89.4328 185.91 88.6513 185.847 87.7942C185.784 86.9244 185.519 86.1681 185.028 85.5253C184.55 84.8824 183.87 84.3908 183.014 84.0505C182.145 83.7228 181.112 83.5967 179.891 83.6849C178.669 83.7732 177.662 84.0379 176.843 84.4917C176.037 84.9454 175.446 85.5253 175.055 86.2312C174.665 86.9371 174.514 87.7312 174.577 88.5883C174.64 89.4454 174.904 90.2018 175.395 90.8572C175.874 91.5127 176.554 92.0043 177.41 92.332C178.279 92.6597 179.311 92.7858 180.533 92.6976V92.7102Z" fill="#C4C4C4"/>
<path d="M186.904 109.021L186.64 111.277L176.831 110.143C175.786 110.029 174.892 109.677 174.149 109.084C173.406 108.504 172.852 107.735 172.487 106.79C172.134 105.845 172.021 104.773 172.159 103.588C172.298 102.391 172.65 101.382 173.204 100.55C173.771 99.7186 174.476 99.1009 175.332 98.6976C176.189 98.2942 177.146 98.1555 178.191 98.2816L188 99.416L187.736 101.672L178.103 100.563C177.423 100.487 176.806 100.563 176.252 100.803C175.698 101.042 175.232 101.42 174.866 101.937C174.501 102.454 174.275 103.084 174.186 103.84C174.098 104.597 174.186 105.265 174.413 105.857C174.64 106.45 175.005 106.916 175.496 107.269C175.987 107.622 176.566 107.836 177.246 107.912L186.879 109.021H186.904Z" fill="#C4C4C4"/>
<path d="M183.845 115.21L185.721 115.765L182.409 126.92L180.533 126.365L181.868 121.865L169.339 118.134L169.981 115.966L182.51 119.697L183.845 115.21Z" fill="#C4C4C4"/>
<path d="M173.192 145.248L172.046 147.214L163.534 142.21C162.627 141.681 161.947 140.987 161.506 140.155C161.053 139.323 160.864 138.403 160.914 137.395C160.965 136.386 161.305 135.365 161.909 134.332C162.514 133.298 163.244 132.517 164.1 131.975C164.956 131.433 165.851 131.155 166.795 131.143C167.739 131.13 168.671 131.382 169.578 131.924L178.09 136.928L176.944 138.882L168.583 133.966C168.004 133.626 167.399 133.45 166.795 133.437C166.191 133.437 165.611 133.588 165.07 133.916C164.528 134.244 164.075 134.735 163.685 135.391C163.294 136.046 163.093 136.689 163.068 137.332C163.042 137.962 163.181 138.542 163.496 139.059C163.798 139.588 164.251 140.017 164.831 140.357L173.192 145.273V145.248Z" fill="#C4C4C4"/>
<path d="M160.6 155.181C161.179 155.571 161.796 155.672 162.463 155.483C163.118 155.294 163.735 154.878 164.289 154.223C164.692 153.756 164.956 153.277 165.108 152.811C165.246 152.345 165.271 151.903 165.183 151.5C165.082 151.097 164.881 150.756 164.554 150.479C164.276 150.252 163.987 150.113 163.685 150.076C163.382 150.038 163.068 150.076 162.753 150.164C162.438 150.265 162.136 150.391 161.846 150.567C161.557 150.731 161.28 150.908 161.04 151.084L159.806 151.954C159.403 152.244 158.963 152.521 158.484 152.773C158.006 153.025 157.502 153.214 156.973 153.328C156.444 153.441 155.915 153.441 155.374 153.328C154.832 153.214 154.304 152.95 153.787 152.508C153.132 151.954 152.704 151.298 152.478 150.542C152.264 149.786 152.264 148.954 152.515 148.084C152.767 147.202 153.258 146.319 154.027 145.424C154.757 144.567 155.525 143.937 156.318 143.546C157.124 143.155 157.93 142.992 158.723 143.055C159.529 143.13 160.285 143.433 161.003 143.987L159.529 145.727C159.089 145.412 158.623 145.248 158.157 145.261C157.678 145.261 157.225 145.399 156.772 145.651C156.318 145.916 155.915 146.256 155.538 146.71C155.122 147.202 154.832 147.706 154.656 148.21C154.492 148.727 154.442 149.206 154.543 149.66C154.631 150.113 154.87 150.504 155.235 150.819C155.575 151.109 155.928 151.248 156.318 151.235C156.696 151.235 157.099 151.122 157.515 150.908C157.93 150.693 158.371 150.441 158.824 150.126L160.335 149.08C161.368 148.374 162.35 147.958 163.282 147.832C164.226 147.706 165.082 147.983 165.888 148.664C166.543 149.219 166.971 149.887 167.16 150.668C167.349 151.45 167.324 152.256 167.072 153.101C166.833 153.945 166.379 154.752 165.725 155.521C165.07 156.303 164.352 156.87 163.571 157.235C162.791 157.601 162.023 157.752 161.254 157.689C160.486 157.626 159.794 157.349 159.164 156.845L160.574 155.181H160.6Z" fill="#C4C4C4"/>
<path d="M143.89 155.534C144.205 155.281 144.557 155.168 144.96 155.206C145.363 155.244 145.691 155.42 145.955 155.735C146.207 156.05 146.32 156.403 146.27 156.807C146.232 157.21 146.056 157.538 145.741 157.79C145.426 158.042 145.074 158.155 144.671 158.118C144.268 158.08 143.94 157.903 143.688 157.588C143.512 157.374 143.411 157.147 143.374 156.895C143.336 156.643 143.374 156.391 143.449 156.151C143.537 155.912 143.688 155.697 143.89 155.534Z" fill="#C4C4C4"/>
<path d="M136.662 161.193L143.915 174.353L141.926 175.449L138.463 169.16L138.299 169.248L136.247 178.576L133.753 179.962L135.793 171.101L126.475 166.802L128.868 165.479L136.36 169.008L136.926 166.361L134.672 162.265L136.662 161.168V161.193Z" fill="#C4C4C4"/>
<path d="M118.429 185.534L113.606 171.29L115.583 170.622L126.349 178.613L126.475 178.563L122.937 168.113L125.077 167.382L129.9 181.626L127.911 182.294L117.132 174.29L116.993 174.34L120.532 184.803L118.403 185.521L118.429 185.534Z" fill="#C4C4C4"/>
<path d="M99.1124 181.134C98.8983 179.546 98.9991 178.134 99.4272 176.912C99.8553 175.689 100.535 174.706 101.455 173.95C102.386 173.193 103.482 172.739 104.766 172.563C106.051 172.386 107.247 172.538 108.342 173.017C109.438 173.496 110.357 174.265 111.087 175.323C111.818 176.382 112.296 177.718 112.523 179.294C112.737 180.882 112.636 182.294 112.208 183.517C111.78 184.739 111.113 185.723 110.181 186.479C109.249 187.235 108.154 187.689 106.857 187.865C105.572 188.042 104.388 187.891 103.293 187.412C102.197 186.933 101.278 186.164 100.548 185.105C99.805 184.046 99.3391 182.71 99.1124 181.122V181.134ZM101.341 180.832C101.505 182.042 101.845 183.038 102.349 183.819C102.852 184.601 103.469 185.155 104.2 185.496C104.93 185.836 105.723 185.937 106.58 185.823C107.436 185.71 108.179 185.382 108.783 184.865C109.4 184.349 109.841 183.643 110.118 182.76C110.395 181.878 110.445 180.832 110.282 179.609C110.118 178.399 109.778 177.403 109.274 176.622C108.771 175.84 108.154 175.286 107.423 174.945C106.693 174.605 105.9 174.504 105.043 174.618C104.187 174.731 103.457 175.059 102.84 175.576C102.223 176.092 101.769 176.798 101.505 177.681C101.228 178.563 101.178 179.609 101.341 180.832Z" fill="#C4C4C4"/>
<path d="M93.2319 173.685L96.2162 189L93.8363 188.811L91.8341 176.975H91.6956L87.7543 188.332L85.3996 188.143L83.2715 176.294H83.133L79.3176 187.664L76.9377 187.475L82.2767 172.815L84.5559 172.992L86.8225 184.462H86.9358L90.9653 173.496L93.2444 173.672L93.2319 173.685Z" fill="#C4C4C4"/>
<path d="M66.1715 184.664L63.6153 183.643L63.5145 171.012L63.3508 170.949L54.5741 180.025L52.0179 179.004L57.5962 165.05L59.5984 165.857L55.5563 175.954L55.6822 176.004L63.8293 167.571L65.4915 168.239L65.567 179.975L65.693 180.025L69.735 169.916L71.7372 170.723L66.1589 184.676L66.1715 184.664Z" fill="#C4C4C4"/>
<path d="M40.3577 162.668C41.2517 161.332 42.2591 160.349 43.3924 159.718C44.5257 159.088 45.6841 158.798 46.8678 158.849C48.064 158.899 49.1973 159.29 50.2677 160.008C51.3506 160.739 52.1439 161.634 52.6476 162.718C53.1513 163.802 53.3275 164.987 53.1764 166.273C53.0253 167.559 52.4965 168.87 51.615 170.193C50.721 171.529 49.7136 172.512 48.5803 173.143C47.447 173.773 46.2886 174.063 45.1049 174.012C43.9087 173.962 42.7754 173.571 41.6924 172.84C40.6221 172.122 39.8288 171.214 39.3251 170.13C38.8214 169.046 38.6452 167.861 38.7963 166.576C38.9474 165.29 39.4762 163.979 40.3703 162.643L40.3577 162.668ZM42.2213 163.916C41.5413 164.937 41.1258 165.895 40.9873 166.815C40.8488 167.735 40.9369 168.555 41.2643 169.298C41.5917 170.042 42.108 170.647 42.8257 171.126C43.5435 171.605 44.3116 171.857 45.1175 171.882C45.9234 171.907 46.7167 171.668 47.51 171.189C48.3033 170.71 49.0336 169.966 49.7136 168.945C50.3936 167.924 50.8091 166.966 50.9476 166.046C51.0862 165.126 50.998 164.307 50.6706 163.563C50.3432 162.819 49.8269 162.214 49.1092 161.735C48.3914 161.256 47.6359 161.004 46.83 160.991C46.0241 160.966 45.2182 161.206 44.4249 161.685C43.6316 162.164 42.8887 162.907 42.2087 163.928L42.2213 163.916Z" fill="#C4C4C4"/>
<path d="M42.9139 154.916L32.5002 165.756L28.647 162.038C27.8034 161.231 27.2493 160.412 26.9723 159.592C26.6953 158.773 26.6575 157.966 26.8841 157.197C27.1108 156.429 27.5263 155.697 28.1685 155.042C28.8107 154.374 29.5033 153.933 30.2588 153.693C31.0144 153.454 31.8077 153.466 32.6387 153.718C33.4698 153.971 34.2883 154.5 35.132 155.307L38.0533 158.118L36.706 159.529L33.9357 156.857C33.4069 156.353 32.9032 156.013 32.4247 155.836C31.9462 155.672 31.4929 155.647 31.0521 155.798C30.6114 155.95 30.2085 156.214 29.8181 156.618C29.4277 157.021 29.1633 157.462 29.0374 157.903C28.9115 158.357 28.9367 158.824 29.1129 159.302C29.2892 159.781 29.6544 160.286 30.1959 160.803L32.2484 162.781L41.3147 153.353L42.9517 154.929L42.9139 154.916ZM32.8654 154.664L34.8927 147.202L36.7563 148.992L34.6787 156.403L32.8654 154.664Z" fill="#C4C4C4"/>
<path d="M33.8727 145.865L21.9103 154.954L16.2186 147.441L17.7675 146.256L22.0865 151.954L25.7257 149.181L21.6962 143.874L23.245 142.702L27.2745 148.008L30.9388 145.223L26.5693 139.45L28.1182 138.265L33.8602 145.84L33.8727 145.865Z" fill="#C4C4C4"/>
<path d="M23.6354 130.563L24.6176 132.769L8.70119 133.941L7.63086 131.546L19.1526 120.479L20.1348 122.685L10.6404 131.571L10.6907 131.685L23.648 130.563H23.6354ZM18.1075 132.592L14.9343 125.458L16.672 124.676L19.8452 131.811L18.1075 132.592Z" fill="#C4C4C4"/>
<path d="M18.7623 118.954L4.20581 122.66L2.84586 117.328C2.58143 116.294 2.53106 115.399 2.70735 114.63C2.87105 113.861 3.19844 113.244 3.68953 112.765C4.18062 112.286 4.78504 111.945 5.50279 111.769C6.10721 111.618 6.64867 111.593 7.11458 111.719C7.58049 111.832 7.99603 112.046 8.33602 112.361C8.676 112.677 8.96562 113.03 9.19228 113.445L9.33079 113.408C9.23005 112.916 9.26783 112.399 9.43153 111.87C9.59522 111.34 9.91003 110.849 10.3633 110.408C10.8167 109.966 11.4085 109.651 12.164 109.462C12.9069 109.273 13.6247 109.273 14.2921 109.475C14.9721 109.677 15.5765 110.093 16.1053 110.735C16.6342 111.378 17.0372 112.261 17.3268 113.382L18.7371 118.966L18.7623 118.954ZM9.9478 118.853L9.20487 115.903C9.07895 115.412 8.87748 114.996 8.58786 114.643C8.29824 114.29 7.94566 114.051 7.54271 113.899C7.13977 113.748 6.69904 113.735 6.23314 113.861C5.62871 114.013 5.1754 114.353 4.88578 114.882C4.58357 115.412 4.54579 116.105 4.77245 116.988L5.54057 119.988L9.97299 118.866L9.9478 118.853ZM16.332 117.24L15.5261 114.063C15.2617 113.017 14.8587 112.311 14.3424 111.958C13.8136 111.605 13.2469 111.504 12.6425 111.668C12.1892 111.782 11.7863 112.009 11.4714 112.336C11.1441 112.664 10.93 113.08 10.8041 113.559C10.6907 114.051 10.7033 114.58 10.8544 115.172L11.6855 118.424L16.3446 117.24H16.332Z" fill="#C4C4C4"/>
<path d="M7.31606 93.9077C8.91525 93.7942 10.313 93.9959 11.4966 94.5001C12.6929 95.0043 13.6247 95.748 14.3173 96.7186C15.0098 97.6892 15.4002 98.8236 15.4883 100.122C15.5765 101.42 15.3498 102.605 14.8084 103.664C14.2669 104.723 13.4358 105.593 12.3277 106.261C11.2196 106.929 9.85966 107.319 8.27306 107.433C6.67386 107.546 5.27614 107.345 4.09248 106.84C2.90882 106.336 1.96442 105.593 1.27185 104.622C0.579285 103.651 0.18893 102.517 0.100786 101.206C0.0126411 99.9077 0.239299 98.7354 0.780759 97.6766C1.32222 96.6177 2.1533 95.748 3.2614 95.0799C4.36951 94.4119 5.71686 94.0211 7.31606 93.9077ZM7.47975 96.1514C6.25832 96.2396 5.25095 96.5043 4.43247 96.9581C3.62657 97.4119 3.02215 97.9917 2.64439 98.6976C2.26663 99.4035 2.10293 100.198 2.16589 101.055C2.22885 101.924 2.49328 102.681 2.97178 103.324C3.45028 103.966 4.11766 104.458 4.98652 104.798C5.85537 105.139 6.88793 105.252 8.10936 105.164C9.33079 105.076 10.3382 104.811 11.1566 104.357C11.9625 103.903 12.567 103.324 12.9447 102.618C13.3351 101.912 13.4862 101.118 13.4232 100.261C13.3603 99.4035 13.0958 98.6471 12.6173 97.9917C12.1388 97.3362 11.4589 96.8446 10.6026 96.5169C9.73374 96.1766 8.70119 96.0631 7.47975 96.1514Z" fill="#C4C4C4"/>
<path d="M1.13329 79.8278L1.39772 77.5715L11.207 78.7186C12.2521 78.8446 13.1461 79.1976 13.8891 79.7774C14.632 80.3572 15.1861 81.1262 15.5386 82.0715C15.8912 83.0169 16.0046 84.0883 15.866 85.2858C15.7275 86.4707 15.3749 87.4917 14.8083 88.3236C14.2417 89.1556 13.5365 89.7732 12.6676 90.1766C11.7988 90.5799 10.8544 90.706 9.80924 90.5925L0 89.4455L0.264434 87.1892L9.89739 88.311C10.5774 88.3867 11.1944 88.311 11.7484 88.0715C12.3025 87.832 12.7684 87.4539 13.1336 86.9371C13.4987 86.4203 13.7254 85.79 13.8135 85.0337C13.9017 84.2774 13.8261 83.5967 13.5995 83.0169C13.3602 82.4245 13.0076 81.9581 12.5165 81.6051C12.0255 81.2522 11.4462 81.0379 10.7662 80.9497L1.13329 79.8278Z" fill="#C4C4C4"/>
<path d="M4.20579 73.6386L2.34216 73.084L5.67907 61.9412L7.5427 62.4958L6.19534 66.9832L18.7119 70.7269L18.0697 72.8949L5.55315 69.1512L4.21839 73.6386H4.20579Z" fill="#C4C4C4"/>
<path d="M14.8964 43.6387L16.0549 41.6724L24.5672 46.6892C25.4738 47.2186 26.1538 47.9119 26.5945 48.7438C27.0352 49.5757 27.2367 50.5085 27.1737 51.5043C27.1234 52.5127 26.7834 53.5337 26.179 54.5673C25.5745 55.6009 24.8442 56.3824 23.9879 56.9245C23.1317 57.4665 22.2376 57.7438 21.2932 57.7564C20.3488 57.769 19.417 57.5169 18.5104 56.9749L9.99811 51.9581L11.144 50.0043L19.4925 54.9329C20.0718 55.2732 20.6762 55.4497 21.2806 55.4623C21.885 55.4623 22.4643 55.311 23.0057 54.9959C23.5472 54.6682 24.0131 54.1892 24.3909 53.5337C24.7812 52.8782 24.9827 52.2354 25.0079 51.6051C25.0331 50.9749 24.8946 50.395 24.5798 49.8782C24.2775 49.3488 23.8368 48.9203 23.245 48.5799L14.8964 43.6514V43.6387Z" fill="#C4C4C4"/>
<path d="M27.5012 33.7184C26.9219 33.3276 26.3049 33.2268 25.6375 33.4033C24.9827 33.5923 24.3657 34.0083 23.8117 34.6638C23.4087 35.1302 23.1443 35.5965 22.9932 36.0755C22.8547 36.5419 22.8295 36.9831 22.9176 37.3865C23.0184 37.7898 23.2199 38.1302 23.5472 38.4075C23.8243 38.6344 24.1139 38.773 24.4161 38.8108C24.7183 38.8486 25.0331 38.8108 25.3479 38.7226C25.6627 38.6344 25.9649 38.4957 26.2545 38.3192C26.5442 38.1554 26.8212 37.9789 27.0604 37.8024L28.3071 36.9327C28.71 36.6428 29.1507 36.3781 29.6292 36.1133C30.1077 35.8612 30.6114 35.6722 31.1403 35.5587C31.6691 35.4453 32.198 35.4453 32.7395 35.5587C33.2809 35.6722 33.8098 35.9495 34.3261 36.3781C34.9683 36.9327 35.409 37.5881 35.6231 38.3444C35.8371 39.1007 35.8245 39.9201 35.5853 40.8024C35.3334 41.6848 34.8298 42.5671 34.0742 43.4621C33.3439 44.3192 32.5758 44.9495 31.7699 45.3402C30.964 45.731 30.1581 45.8949 29.3648 45.8192C28.5715 45.7436 27.8034 45.4411 27.0856 44.8865L28.5589 43.147C28.9996 43.4621 29.4529 43.626 29.9314 43.626C30.4099 43.626 30.8633 43.4873 31.3166 43.2352C31.7699 42.9831 32.1728 42.6302 32.5506 42.1764C32.9661 41.6848 33.2558 41.1932 33.432 40.6764C33.5957 40.1596 33.6461 39.6806 33.5454 39.2268C33.4572 38.773 33.218 38.3823 32.8528 38.0671C32.5128 37.7772 32.1602 37.6386 31.7699 37.6512C31.3921 37.6512 30.9892 37.7646 30.5736 37.9663C30.1581 38.168 29.7174 38.4327 29.2641 38.7478L27.7404 39.7814C26.7079 40.4873 25.7257 40.9033 24.7939 41.0167C23.8495 41.1428 22.9932 40.8654 22.1873 40.1848C21.5325 39.6175 21.1044 38.9495 20.9155 38.1806C20.7266 37.3991 20.7518 36.5923 21.0036 35.7478C21.2555 34.9033 21.6962 34.0965 22.351 33.3276C23.0058 32.5461 23.7235 31.9789 24.5042 31.626C25.285 31.273 26.0531 31.1091 26.8212 31.1722C27.5893 31.2352 28.2819 31.5125 28.9115 32.0293L27.5012 33.6932V33.7184Z" fill="#C4C4C4"/>
<path d="M44.2108 33.3783C43.896 33.6304 43.5435 33.7438 43.1405 33.706C42.7376 33.6682 42.4102 33.4917 42.1457 33.1766C41.8939 32.8615 41.7806 32.5085 41.8309 32.1051C41.8687 31.7018 42.045 31.3741 42.3598 31.122C42.6746 30.8699 43.0272 30.7564 43.4301 30.7942C43.8331 30.832 44.1605 31.0085 44.4123 31.3236C44.576 31.5379 44.6893 31.7648 44.7271 32.0169C44.7649 32.269 44.7271 32.5211 44.6516 32.7606C44.5634 33.0001 44.4123 33.2144 44.2108 33.3783Z" fill="#C4C4C4"/>
</svg>
