<svg width="16" height="17" viewBox="0 0 16 17" fill="none" xmlns="http://www.w3.org/2000/svg">
<path d="M9.15043 2.77651L10.3236 5.14231C10.4836 5.47163 10.9102 5.78752 11.2702 5.84801L13.3966 6.20422C14.7565 6.43274 15.0765 7.42745 14.0966 8.40872L12.4434 10.0755C12.1634 10.3578 12.0102 10.9022 12.0968 11.2921L12.5701 13.3554C12.9434 14.9886 12.0834 15.6204 10.6503 14.7668L8.65716 13.5772C8.29723 13.3621 7.70396 13.3621 7.3373 13.5772L5.34421 14.7668C3.9177 15.6204 3.05113 14.9819 3.42442 13.3554L3.8977 11.2921C3.98436 10.9022 3.83104 10.3578 3.55107 10.0755L1.89792 8.40872C0.924697 7.42745 1.238 6.43274 2.59784 6.20422L4.72428 5.84801C5.07757 5.78752 5.50419 5.47163 5.66417 5.14231L6.83736 2.77651C7.4773 1.49279 8.51716 1.49279 9.15043 2.77651Z" fill="#234182"/>
</svg>
