<svg width="33" height="32" viewBox="0 0 33 32" fill="none" xmlns="http://www.w3.org/2000/svg">
<path fill-rule="evenodd" clip-rule="evenodd" d="M8.74373 13.7777C7.44005 13.7777 7.16797 14.0336 7.16797 15.2592V17.4814C7.16797 18.7072 7.44005 18.9629 8.74373 18.9629H11.8952V27.8518C11.8952 29.0774 12.1673 29.3333 13.471 29.3333H16.6225C17.9262 29.3333 18.1982 29.0774 18.1982 27.8518V18.9629H21.7369C22.7257 18.9629 22.9805 18.7822 23.2521 17.8885L23.9274 15.6662C24.3926 14.1352 24.106 13.7777 22.4122 13.7777H18.1982V10.074C18.1982 9.25584 18.9037 8.59255 19.774 8.59255H24.2589C25.5625 8.59255 25.8346 8.33675 25.8346 7.11107V4.14811C25.8346 2.92243 25.5625 2.66663 24.2589 2.66663H19.774C15.4226 2.66663 11.8952 5.98304 11.8952 10.074V13.7777H8.74373Z" stroke="#212121" stroke-opacity="0.7" stroke-width="2" stroke-linejoin="round"/>
</svg>
