<svg width="33" height="32" viewBox="0 0 33 32" fill="none" xmlns="http://www.w3.org/2000/svg">
<path d="M3.83203 16C3.83203 10.0289 3.83203 7.04336 5.68702 5.18836C7.54202 3.33337 10.5276 3.33337 16.4987 3.33337C22.4698 3.33337 25.4554 3.33337 27.3104 5.18836C29.1654 7.04336 29.1654 10.0289 29.1654 16C29.1654 21.9711 29.1654 24.9567 27.3104 26.8118C25.4554 28.6667 22.4698 28.6667 16.4987 28.6667C10.5276 28.6667 7.54202 28.6667 5.68702 26.8118C3.83203 24.9567 3.83203 21.9711 3.83203 16Z" stroke="#212121" stroke-opacity="0.7" stroke-width="2" stroke-linejoin="round"/>
<path d="M22.5 16C22.5 19.3137 19.8137 22 16.5 22C13.1863 22 10.5 19.3137 10.5 16C10.5 12.6863 13.1863 10 16.5 10C19.8137 10 22.5 12.6863 22.5 16Z" stroke="#212121" stroke-opacity="0.7" stroke-width="2"/>
<path d="M23.844 8.66663H23.832" stroke="#212121" stroke-opacity="0.7" stroke-width="2" stroke-linecap="round" stroke-linejoin="round"/>
</svg>
